<svg width="150" height="37" viewBox="0 0 150 37" fill="none" xmlns="http://www.w3.org/2000/svg">
<g clip-path="url(#clip0_1281_7578)">
<path d="M147.45 17.3L147.25 17.1L147.43 16.88C148.693 15.3918 149.343 13.4796 149.25 11.53C149.04 7.11001 145.06 3.64001 140.18 3.64001H129.7C128.871 3.64257 128.075 3.97116 127.486 4.55487C126.897 5.13859 126.561 5.93061 126.55 6.76001V29.11C126.55 29.5237 126.632 29.9333 126.79 30.3155C126.948 30.6976 127.18 31.0449 127.473 31.3374C127.765 31.6299 128.112 31.8619 128.495 32.0202C128.877 32.1785 129.286 32.26 129.7 32.26H140.15C142.692 32.2726 145.149 31.3468 147.05 29.66C147.964 28.8757 148.7 27.9053 149.209 26.8136C149.717 25.722 149.987 24.5343 150 23.33C149.982 21.0618 149.065 18.8933 147.45 17.3ZM132.68 9.38002H140.61C140.965 9.33504 141.325 9.36612 141.667 9.47119C142.009 9.57626 142.325 9.75291 142.593 9.98939C142.861 10.2259 143.076 10.5168 143.224 10.8428C143.371 11.1687 143.447 11.5223 143.447 11.88C143.447 12.2377 143.371 12.5913 143.224 12.9173C143.076 13.2432 142.861 13.5341 142.593 13.7706C142.325 14.0071 142.009 14.1838 141.667 14.2888C141.325 14.3939 140.965 14.425 140.61 14.38H132.68V9.38002ZM140.68 26.53H132.68V20.14H140.68C141.115 20.1157 141.55 20.1803 141.958 20.3299C142.367 20.4794 142.741 20.7108 143.057 21.0099C143.374 21.309 143.626 21.6694 143.798 22.0692C143.97 22.469 144.059 22.8997 144.059 23.335C144.059 23.7703 143.97 24.201 143.798 24.6008C143.626 25.0006 143.374 25.361 143.057 25.6601C142.741 25.9592 142.367 26.1906 141.958 26.3402C141.55 26.4897 141.115 26.5543 140.68 26.53Z" fill="black"/>
<path d="M113.62 15.06C111.21 14.41 108.33 13.66 108.22 11.71C108.14 10.34 109.22 9.19 110.98 8.97C114.52 8.52 117.71 10.61 119.37 11.02C119.737 11.0883 120.114 11.0794 120.478 10.9939C120.841 10.9084 121.183 10.7481 121.481 10.5233C121.78 10.2985 122.028 10.014 122.21 9.68808C122.392 9.36211 122.505 9.00178 122.54 8.63C122.81 6.49 120.69 5.32 119.89 4.83C117.653 3.56329 115.109 2.9403 112.54 3.03C106.24 3.03 101.85 6.67 101.85 11.88C101.791 13.1289 102.045 14.3727 102.588 15.4989C103.131 16.6251 103.946 17.5982 104.96 18.33C108.96 21.33 116.82 21 116.83 24.11C116.83 26.91 111.67 28.64 105.98 24.87C105.564 24.5412 105.065 24.3361 104.538 24.2782C104.012 24.2203 103.479 24.3119 103.002 24.5426C102.525 24.7732 102.123 25.1336 101.841 25.5824C101.56 26.0312 101.41 26.5502 101.41 27.08C101.408 27.5832 101.542 28.0776 101.8 28.51L101.69 28.57H101.8L101.9 28.73C102.491 29.5429 103.235 30.2325 104.09 30.76C106.545 32.2469 109.382 32.9806 112.25 32.87C115.133 33.0089 117.977 32.1586 120.31 30.46C121.287 29.6588 122.067 28.6427 122.587 27.491C123.107 26.3393 123.355 25.083 123.31 23.82C123.35 18.37 118.66 16.44 113.62 15.06Z" fill="black"/>
<path d="M95.07 3.64999H93.13C92.5823 3.65057 92.0458 3.80572 91.5824 4.09761C91.1189 4.3895 90.7472 4.80627 90.51 5.3L83.85 19.02L77.21 5.3C76.9755 4.80631 76.6058 4.38925 76.1439 4.0972C75.6819 3.80515 75.1466 3.65008 74.6 3.64999H72.66C71.8375 3.6603 71.0514 3.99096 70.4688 4.5717C69.8862 5.15244 69.553 5.93748 69.54 6.75999V29.46C69.5455 30.0087 69.696 30.5462 69.9763 31.018C70.2566 31.4897 70.6568 31.8789 71.1361 32.146C71.6155 32.4131 72.157 32.5486 72.7056 32.5388C73.2543 32.5289 73.7906 32.3741 74.26 32.09C74.6945 31.8488 75.0557 31.4948 75.3056 31.0653C75.5555 30.6358 75.6849 30.1469 75.68 29.65V16.16L81.19 26.76C81.4388 27.2592 81.8219 27.6792 82.2962 27.9727C82.7705 28.2663 83.3172 28.4218 83.875 28.4218C84.4328 28.4218 84.9796 28.2663 85.4539 27.9727C85.9282 27.6792 86.3112 27.2592 86.56 26.76L92.07 16.18V29.65C92.0673 30.1464 92.1976 30.6346 92.4473 31.0637C92.697 31.4927 93.0571 31.8471 93.4901 32.09C93.9595 32.3741 94.4958 32.5289 95.0445 32.5388C95.5931 32.5486 96.1346 32.4131 96.614 32.146C97.0933 31.8789 97.4935 31.4897 97.7738 31.018C98.0541 30.5462 98.2046 30.0087 98.21 29.46V6.75999C98.1995 5.93324 97.8644 5.14376 97.2769 4.56193C96.6895 3.98009 95.8969 3.65255 95.07 3.64999Z" fill="black"/>
<path d="M26.58 33.06L9.85005 13.12C8.49118 11.4935 7.83328 9.39426 8.02077 7.28314C8.20825 5.17202 9.22581 3.22156 10.85 1.86C12.4765 0.501133 14.5758 -0.156775 16.6869 0.0307138C18.798 0.218203 20.7485 1.23576 22.11 2.86L38.85 22.76C40.2089 24.3865 40.8668 26.4857 40.6793 28.5969C40.4918 30.708 39.4743 32.6584 37.85 34.02C36.228 35.3867 34.1297 36.0533 32.0163 35.8732C29.9029 35.6932 27.9475 34.6813 26.58 33.06Z" fill="url(#paint0_radial_1281_7578)"/>
<path d="M44.67 9.65999L40.52 29.52C40.3102 30.5517 39.8988 31.5319 39.3095 32.4043C38.7201 33.2767 37.9643 34.0242 37.0854 34.6039C36.2066 35.1836 35.2219 35.5841 34.188 35.7825C33.154 35.9809 32.091 35.9732 31.06 35.76C30.0258 35.5471 29.044 35.1316 28.1712 34.5375C27.2984 33.9434 26.5518 33.1823 25.9745 32.2983C25.3972 31.4142 25.0006 30.4246 24.8076 29.3865C24.6146 28.3485 24.629 27.2825 24.85 26.25L29 6.38999C29.4352 4.31759 30.6743 2.50227 32.4457 1.34195C34.2171 0.181632 36.3763 -0.229028 38.45 0.199988C39.4799 0.412048 40.4579 0.825068 41.3281 1.41542C42.1983 2.00578 42.9435 2.76189 43.5212 3.64051C44.0989 4.51912 44.4977 5.50301 44.6948 6.53588C44.892 7.56876 44.8835 8.63037 44.67 9.65999Z" fill="url(#paint1_radial_1281_7578)"/>
<path d="M47.4501 33.06L30.72 13.12C29.3612 11.4935 28.7033 9.39426 28.8908 7.28314C29.0782 5.17202 30.0958 3.22156 31.72 1.86C33.3465 0.501133 35.4458 -0.156775 37.5569 0.0307138C39.668 0.218203 41.6185 1.23576 42.9801 2.86L59.69 22.76C61.0489 24.3865 61.7068 26.4857 61.5193 28.5969C61.3318 30.708 60.3143 32.6584 58.69 34.02C57.0697 35.3773 54.9781 36.0382 52.8721 35.8584C50.766 35.6785 48.8167 34.6724 47.4501 33.06Z" fill="url(#paint2_radial_1281_7578)"/>
<path d="M15.96 27.27C16.0937 28.9025 15.7232 30.5368 14.8983 31.9519C14.0734 33.367 12.8341 34.4949 11.3476 35.183C9.86121 35.8712 8.19936 36.0865 6.58665 35.7998C4.97393 35.5132 3.48808 34.7384 2.32984 33.5801C1.17161 32.4219 0.396821 30.936 0.110162 29.3233C-0.176496 27.7106 0.0387884 26.0488 0.726938 24.5623C1.41509 23.0759 2.54293 21.8365 3.95808 21.0117C5.37322 20.1868 7.00746 19.8162 8.63998 19.95C10.5296 20.1048 12.3029 20.9258 13.6436 22.2664C14.9842 23.6071 15.8052 25.3803 15.96 27.27Z" fill="url(#paint3_radial_1281_7578)"/>
</g>
<defs>
<radialGradient id="paint0_radial_1281_7578" cx="0" cy="0" r="1" gradientUnits="userSpaceOnUse" gradientTransform="translate(27.961 10.1865) scale(15.82 15.82)">
<stop stop-color="#9D0B0F"/>
<stop offset="0.07" stop-color="#AA0E12"/>
<stop offset="0.26" stop-color="#C7141A"/>
<stop offset="0.44" stop-color="#DB1820"/>
<stop offset="0.62" stop-color="#E81B23"/>
<stop offset="0.8" stop-color="#EC1C24"/>
</radialGradient>
<radialGradient id="paint1_radial_1281_7578" cx="0" cy="0" r="1" gradientUnits="userSpaceOnUse" gradientTransform="translate(42.66 18.754) scale(15.8725 15.8725)">
<stop offset="0.3" stop-color="#9D0B0F"/>
<stop offset="0.35" stop-color="#AA0E12"/>
<stop offset="0.48" stop-color="#C7141A"/>
<stop offset="0.6" stop-color="#DB1820"/>
<stop offset="0.73" stop-color="#E81B23"/>
<stop offset="0.85" stop-color="#EC1C24"/>
</radialGradient>
<radialGradient id="paint2_radial_1281_7578" cx="0" cy="0" r="1" gradientUnits="userSpaceOnUse" gradientTransform="translate(31.2615 1.86) scale(33.8625)">
<stop offset="0.35" stop-color="#EC1C24"/>
<stop offset="1" stop-color="#F26F21"/>
</radialGradient>
<radialGradient id="paint3_radial_1281_7578" cx="0" cy="0" r="1" gradientUnits="userSpaceOnUse" gradientTransform="translate(4.91698 30.525) scale(11.8825 11.8825)">
<stop offset="0.3" stop-color="#EC1C24"/>
<stop offset="1" stop-color="#9D0B0F"/>
</radialGradient>
<clipPath id="clip0_1281_7578">
<rect width="150" height="35.9" fill="white"/>
</clipPath>
</defs>
</svg>
